<?xml version="1.0" standalone="no"?>
<!DOCTYPE svg PUBLIC "-//W3C//DTD SVG 20010904//EN"
 "http://www.w3.org/TR/2001/REC-SVG-20010904/DTD/svg10.dtd">
<svg version="1.0" xmlns="http://www.w3.org/2000/svg"
 width="700.000000pt" height="700.000000pt" viewBox="0 0 700.000000 700.000000"
 preserveAspectRatio="xMidYMid meet">
<metadata>
Created by potrace 1.14, written by Peter Selinger 2001-2017
</metadata>
<g transform="translate(0.000000,700.000000) scale(0.100000,-0.100000)"
fill="#000000" stroke="none">
<path d="M32 6222 l-32 -3 0 -2078 0 -2079 107 -98 c60 -55 113 -103 119 -109
6 -5 36 -33 65 -60 30 -28 126 -115 214 -195 88 -80 162 -147 165 -150 3 -4
82 -76 175 -160 94 -85 175 -159 181 -165 41 -38 200 -183 214 -195 36 -32
277 -252 355 -325 12 -11 42 -38 66 -59 24 -22 92 -84 150 -138 l107 -98 2281
0 c2165 0 2281 1 2282 18 0 9 1 946 1 2081 l1 2063 -29 27 c-16 14 -81 73
-144 131 -63 58 -120 110 -126 115 -6 6 -53 48 -104 95 -51 47 -98 90 -104 95
-6 6 -63 57 -126 115 -63 58 -120 110 -126 115 -6 6 -51 46 -100 91 -49 44
-145 132 -214 194 -69 62 -150 136 -180 164 -30 28 -104 96 -164 151 -61 55
-117 107 -126 115 -8 8 -51 46 -93 85 -43 38 -99 90 -125 114 -26 24 -73 66
-104 93 l-57 50 -2248 2 c-1236 0 -2263 0 -2281 -2z m4529 -1794 c3 -301 0
-2349 -5 -2356 -3 -5 -529 -9 -1318 -8 l-1313 1 -2 1203 -3 1202 1320 0 1320
0 1 -42z"/>
</g>
</svg>
