<svg width="251" height="62" viewBox="0 0 251 62" fill="none" xmlns="http://www.w3.org/2000/svg">
<path d="M77.7886 17.7947L76.4517 16.344L86.1797 7.55466C86.4073 7.34607 86.6443 7.25126 86.8908 7.27022C87.1374 7.27022 87.3649 7.384 87.5735 7.61155C87.7821 7.83911 87.8769 8.08563 87.858 8.35111C87.858 8.59763 87.7442 8.8157 87.5166 9.00533L77.7886 17.7947ZM77.0775 23C76.7551 23 76.4897 22.9052 76.2811 22.7156C76.0914 22.507 75.9966 22.2415 75.9966 21.9191V1.86578C75.9966 1.5434 76.0914 1.2874 76.2811 1.09777C76.4897 0.889183 76.7551 0.784887 77.0775 0.784887C77.3999 0.784887 77.6559 0.889183 77.8455 1.09777C78.0541 1.2874 78.1584 1.5434 78.1584 1.86578V21.9191C78.1584 22.2415 78.0541 22.507 77.8455 22.7156C77.6559 22.9052 77.3999 23 77.0775 23ZM87.602 22.8578C87.3554 23.0664 87.0994 23.1517 86.8339 23.1138C86.5685 23.0948 86.3409 22.9621 86.1513 22.7156L79.8082 14.9218L81.3442 13.5564L87.7442 21.4356C87.9338 21.6631 88.0191 21.9096 88.0002 22.1751C87.9812 22.4216 87.8485 22.6492 87.602 22.8578ZM97.4853 23.1422C95.9493 23.1422 94.584 22.8104 93.3893 22.1467C92.2136 21.464 91.2844 20.5253 90.6017 19.3307C89.938 18.136 89.6062 16.7707 89.6062 15.2347C89.6062 13.6797 89.9191 12.3144 90.5448 11.1387C91.1896 9.944 92.0714 9.00533 93.1902 8.32266C94.309 7.64 95.5985 7.29866 97.0586 7.29866C98.4998 7.29866 99.7514 7.63052 100.813 8.29422C101.894 8.93896 102.729 9.8397 103.316 10.9964C103.904 12.1532 104.198 13.4711 104.198 14.9502C104.198 15.2536 104.103 15.5001 103.914 15.6898C103.724 15.8604 103.478 15.9458 103.174 15.9458H91.0853V14.1253H103.402L102.179 15.0071C102.198 13.9073 101.998 12.9212 101.581 12.0489C101.164 11.1766 100.567 10.4939 99.7893 10.0009C99.0308 9.50785 98.1205 9.26133 97.0586 9.26133C95.9777 9.26133 95.0296 9.51733 94.2142 10.0293C93.3988 10.5413 92.7635 11.2524 92.3084 12.1627C91.8722 13.0539 91.6542 14.0779 91.6542 15.2347C91.6542 16.3914 91.9007 17.4154 92.3937 18.3067C92.9057 19.1979 93.5979 19.8996 94.4702 20.4116C95.3425 20.9236 96.3475 21.1796 97.4853 21.1796C98.168 21.1796 98.8506 21.0658 99.5333 20.8382C100.235 20.5917 100.794 20.2883 101.212 19.928C101.42 19.7573 101.657 19.672 101.923 19.672C102.188 19.653 102.416 19.7194 102.605 19.8711C102.852 20.0987 102.975 20.3452 102.975 20.6107C102.994 20.8761 102.89 21.1037 102.662 21.2933C102.036 21.8243 101.24 22.2699 100.273 22.6302C99.3057 22.9716 98.3765 23.1422 97.4853 23.1422ZM108.387 13.4142C108.444 12.2385 108.747 11.1861 109.297 10.2569C109.866 9.3277 110.596 8.59763 111.487 8.06666C112.398 7.5357 113.403 7.27022 114.502 7.27022C115.375 7.27022 116.048 7.39348 116.522 7.64C116.996 7.88652 117.176 8.24681 117.062 8.72089C116.987 9.00533 116.854 9.19496 116.664 9.28978C116.494 9.38459 116.275 9.42252 116.01 9.40355C115.763 9.38459 115.479 9.36563 115.157 9.34667C114.095 9.25185 113.147 9.36563 112.312 9.688C111.497 9.99141 110.843 10.4655 110.35 11.1102C109.875 11.755 109.638 12.523 109.638 13.4142H108.387ZM108.558 23C108.216 23 107.951 22.9052 107.761 22.7156C107.571 22.5259 107.477 22.2604 107.477 21.9191V8.52178C107.477 8.18044 107.571 7.91496 107.761 7.72533C107.951 7.5357 108.216 7.44089 108.558 7.44089C108.899 7.44089 109.164 7.5357 109.354 7.72533C109.544 7.91496 109.638 8.18044 109.638 8.52178V21.9191C109.638 22.2604 109.544 22.5259 109.354 22.7156C109.164 22.9052 108.899 23 108.558 23ZM125.794 23.1422C124.334 23.1422 123.025 22.8009 121.869 22.1182C120.712 21.4166 119.792 20.4684 119.11 19.2738C118.446 18.0791 118.114 16.7327 118.114 15.2347C118.114 13.7176 118.455 12.3618 119.138 11.1671C119.84 9.97244 120.788 9.03378 121.982 8.35111C123.177 7.64948 124.523 7.29866 126.022 7.29866C127.52 7.29866 128.856 7.64948 130.032 8.35111C131.227 9.03378 132.166 9.97244 132.848 11.1671C133.55 12.3618 133.91 13.7176 133.929 15.2347L133.047 15.9173C133.047 17.2827 132.725 18.5153 132.08 19.6151C131.454 20.696 130.592 21.5588 129.492 22.2036C128.411 22.8293 127.178 23.1422 125.794 23.1422ZM126.022 21.1511C127.121 21.1511 128.098 20.8951 128.951 20.3831C129.824 19.8711 130.506 19.1695 130.999 18.2782C131.511 17.368 131.767 16.3535 131.767 15.2347C131.767 14.0969 131.511 13.0824 130.999 12.1911C130.506 11.2999 129.824 10.5982 128.951 10.0862C128.098 9.55526 127.121 9.28978 126.022 9.28978C124.941 9.28978 123.964 9.55526 123.092 10.0862C122.219 10.5982 121.527 11.2999 121.015 12.1911C120.503 13.0824 120.247 14.0969 120.247 15.2347C120.247 16.3535 120.503 17.368 121.015 18.2782C121.527 19.1695 122.219 19.8711 123.092 20.3831C123.964 20.8951 124.941 21.1511 126.022 21.1511ZM132.82 23C132.497 23 132.232 22.9052 132.023 22.7156C131.815 22.507 131.71 22.2415 131.71 21.9191V17.0551L132.251 14.808L133.929 15.2347V21.9191C133.929 22.2415 133.825 22.507 133.616 22.7156C133.408 22.9052 133.142 23 132.82 23ZM141.119 23C140.36 23 139.677 22.7914 139.071 22.3742C138.483 21.957 138.018 21.3787 137.677 20.6391C137.354 19.8996 137.193 19.0462 137.193 18.0791V1.86578C137.193 1.5434 137.288 1.2874 137.478 1.09777C137.686 0.889183 137.952 0.784887 138.274 0.784887C138.597 0.784887 138.853 0.889183 139.042 1.09777C139.251 1.2874 139.355 1.5434 139.355 1.86578V18.0791C139.355 18.8945 139.516 19.5582 139.839 20.0702C140.18 20.5822 140.607 20.8382 141.119 20.8382H141.83C142.114 20.8382 142.342 20.9425 142.512 21.1511C142.683 21.3407 142.768 21.5967 142.768 21.9191C142.768 22.2415 142.645 22.507 142.399 22.7156C142.171 22.9052 141.868 23 141.488 23H141.119ZM151.357 23.1422C149.897 23.1422 148.589 22.8009 147.432 22.1182C146.275 21.4166 145.356 20.4684 144.673 19.2738C144.009 18.0791 143.677 16.7327 143.677 15.2347C143.677 13.7176 144.019 12.3618 144.701 11.1671C145.403 9.97244 146.351 9.03378 147.546 8.35111C148.74 7.64948 150.087 7.29866 151.585 7.29866C153.083 7.29866 154.42 7.64948 155.596 8.35111C156.79 9.03378 157.729 9.97244 158.412 11.1671C159.113 12.3618 159.473 13.7176 159.492 15.2347L158.611 15.9173C158.611 17.2827 158.288 18.5153 157.644 19.6151C157.018 20.696 156.155 21.5588 155.055 22.2036C153.974 22.8293 152.742 23.1422 151.357 23.1422ZM151.585 21.1511C152.685 21.1511 153.661 20.8951 154.515 20.3831C155.387 19.8711 156.07 19.1695 156.563 18.2782C157.075 17.368 157.331 16.3535 157.331 15.2347C157.331 14.0969 157.075 13.0824 156.563 12.1911C156.07 11.2999 155.387 10.5982 154.515 10.0862C153.661 9.55526 152.685 9.28978 151.585 9.28978C150.504 9.28978 149.527 9.55526 148.655 10.0862C147.783 10.5982 147.091 11.2999 146.579 12.1911C146.067 13.0824 145.811 14.0969 145.811 15.2347C145.811 16.3535 146.067 17.368 146.579 18.2782C147.091 19.1695 147.783 19.8711 148.655 20.3831C149.527 20.8951 150.504 21.1511 151.585 21.1511ZM158.383 23C158.061 23 157.795 22.9052 157.587 22.7156C157.378 22.507 157.274 22.2415 157.274 21.9191V17.0551L157.814 14.808L159.492 15.2347V21.9191C159.492 22.2415 159.388 22.507 159.18 22.7156C158.971 22.9052 158.705 23 158.383 23ZM174.759 23C174.513 23 174.295 22.9336 174.105 22.8009C173.915 22.6681 173.783 22.4975 173.707 22.2889L169.27 8.97689C169.156 8.50281 169.165 8.13304 169.298 7.86755C169.431 7.58311 169.696 7.44089 170.094 7.44089C170.341 7.44089 170.559 7.50726 170.749 7.64C170.938 7.77274 171.08 7.98133 171.175 8.26578L175.129 20.3547H174.503L178.173 8.29422C178.248 8.0477 178.372 7.84859 178.542 7.69689C178.732 7.52622 178.969 7.44089 179.254 7.44089C179.538 7.44089 179.766 7.51674 179.936 7.66844C180.126 7.82015 180.259 8.02874 180.334 8.29422L183.833 20.0702H183.35L187.218 8.26578C187.408 7.71585 187.758 7.44089 188.27 7.44089C188.688 7.44089 188.972 7.60207 189.124 7.92444C189.275 8.22785 189.275 8.57867 189.124 8.97689L184.686 22.2889C184.611 22.4975 184.478 22.6681 184.288 22.8009C184.118 22.9336 183.909 23 183.662 23C183.416 23 183.188 22.9336 182.98 22.8009C182.79 22.6681 182.667 22.4975 182.61 22.2889L179.026 10.3991H179.367L175.783 22.2889C175.707 22.5164 175.575 22.6966 175.385 22.8293C175.195 22.9431 174.987 23 174.759 23ZM198.161 23.1422C196.7 23.1422 195.392 22.8009 194.235 22.1182C193.079 21.4166 192.159 20.4684 191.476 19.2738C190.812 18.0791 190.481 16.7327 190.481 15.2347C190.481 13.7176 190.822 12.3618 191.505 11.1671C192.206 9.97244 193.154 9.03378 194.349 8.35111C195.544 7.64948 196.89 7.29866 198.388 7.29866C199.886 7.29866 201.223 7.64948 202.399 8.35111C203.594 9.03378 204.532 9.97244 205.215 11.1671C205.916 12.3618 206.277 13.7176 206.296 15.2347L205.414 15.9173C205.414 17.2827 205.092 18.5153 204.447 19.6151C203.821 20.696 202.958 21.5588 201.858 22.2036C200.778 22.8293 199.545 23.1422 198.161 23.1422ZM198.388 21.1511C199.488 21.1511 200.465 20.8951 201.318 20.3831C202.19 19.8711 202.873 19.1695 203.366 18.2782C203.878 17.368 204.134 16.3535 204.134 15.2347C204.134 14.0969 203.878 13.0824 203.366 12.1911C202.873 11.2999 202.19 10.5982 201.318 10.0862C200.465 9.55526 199.488 9.28978 198.388 9.28978C197.307 9.28978 196.331 9.55526 195.458 10.0862C194.586 10.5982 193.894 11.2999 193.382 12.1911C192.87 13.0824 192.614 14.0969 192.614 15.2347C192.614 16.3535 192.87 17.368 193.382 18.2782C193.894 19.1695 194.586 19.8711 195.458 20.3831C196.331 20.8951 197.307 21.1511 198.388 21.1511ZM205.186 23C204.864 23 204.599 22.9052 204.39 22.7156C204.181 22.507 204.077 22.2415 204.077 21.9191V17.0551L204.618 14.808L206.296 15.2347V21.9191C206.296 22.2415 206.191 22.507 205.983 22.7156C205.774 22.9052 205.509 23 205.186 23ZM216.216 23C215.211 23 214.31 22.763 213.514 22.2889C212.736 21.8148 212.12 21.1701 211.665 20.3547C211.21 19.5203 210.982 18.5721 210.982 17.5102V3.60089C210.982 3.27852 211.077 3.01303 211.267 2.80444C211.475 2.59585 211.741 2.49155 212.063 2.49155C212.385 2.49155 212.651 2.59585 212.86 2.80444C213.068 3.01303 213.172 3.27852 213.172 3.60089V17.5102C213.172 18.4773 213.457 19.2738 214.026 19.8996C214.595 20.5064 215.325 20.8098 216.216 20.8098H216.984C217.287 20.8098 217.534 20.9141 217.724 21.1227C217.913 21.3313 218.008 21.5967 218.008 21.9191C218.008 22.2415 217.894 22.507 217.667 22.7156C217.439 22.9052 217.155 23 216.813 23H216.216ZM209.133 9.91555C208.849 9.91555 208.612 9.83022 208.422 9.65955C208.233 9.46992 208.138 9.24237 208.138 8.97689C208.138 8.69244 208.233 8.46489 208.422 8.29422C208.612 8.10459 208.849 8.00978 209.133 8.00978H216.387C216.671 8.00978 216.908 8.10459 217.098 8.29422C217.287 8.46489 217.382 8.69244 217.382 8.97689C217.382 9.24237 217.287 9.46992 217.098 9.65955C216.908 9.83022 216.671 9.91555 216.387 9.91555H209.133ZM228.201 23.1422C226.665 23.1422 225.3 22.8104 224.105 22.1467C222.929 21.464 222 20.5253 221.317 19.3307C220.654 18.136 220.322 16.7707 220.322 15.2347C220.322 13.6797 220.635 12.3144 221.26 11.1387C221.905 9.944 222.787 9.00533 223.906 8.32266C225.025 7.64 226.314 7.29866 227.774 7.29866C229.215 7.29866 230.467 7.63052 231.529 8.29422C232.61 8.93896 233.444 9.8397 234.032 10.9964C234.62 12.1532 234.914 13.4711 234.914 14.9502C234.914 15.2536 234.819 15.5001 234.629 15.6898C234.44 15.8604 234.193 15.9458 233.89 15.9458H221.801V14.1253H234.117L232.894 15.0071C232.913 13.9073 232.714 12.9212 232.297 12.0489C231.88 11.1766 231.282 10.4939 230.505 10.0009C229.746 9.50785 228.836 9.26133 227.774 9.26133C226.693 9.26133 225.745 9.51733 224.93 10.0293C224.114 10.5413 223.479 11.2524 223.024 12.1627C222.588 13.0539 222.37 14.0779 222.37 15.2347C222.37 16.3914 222.616 17.4154 223.109 18.3067C223.621 19.1979 224.313 19.8996 225.186 20.4116C226.058 20.9236 227.063 21.1796 228.201 21.1796C228.884 21.1796 229.566 21.0658 230.249 20.8382C230.95 20.5917 231.51 20.2883 231.927 19.928C232.136 19.7573 232.373 19.672 232.638 19.672C232.904 19.653 233.131 19.7194 233.321 19.8711C233.567 20.0987 233.691 20.3452 233.691 20.6107C233.71 20.8761 233.605 21.1037 233.378 21.2933C232.752 21.8243 231.956 22.2699 230.988 22.6302C230.021 22.9716 229.092 23.1422 228.201 23.1422ZM239.102 13.4142C239.159 12.2385 239.463 11.1861 240.013 10.2569C240.582 9.3277 241.312 8.59763 242.203 8.06666C243.113 7.5357 244.118 7.27022 245.218 7.27022C246.09 7.27022 246.763 7.39348 247.238 7.64C247.712 7.88652 247.892 8.24681 247.778 8.72089C247.702 9.00533 247.569 9.19496 247.38 9.28978C247.209 9.38459 246.991 9.42252 246.726 9.40355C246.479 9.38459 246.195 9.36563 245.872 9.34667C244.81 9.25185 243.862 9.36563 243.028 9.688C242.212 9.99141 241.558 10.4655 241.065 11.1102C240.591 11.755 240.354 12.523 240.354 13.4142H239.102ZM239.273 23C238.932 23 238.666 22.9052 238.477 22.7156C238.287 22.5259 238.192 22.2604 238.192 21.9191V8.52178C238.192 8.18044 238.287 7.91496 238.477 7.72533C238.666 7.5357 238.932 7.44089 239.273 7.44089C239.614 7.44089 239.88 7.5357 240.07 7.72533C240.259 7.91496 240.354 8.18044 240.354 8.52178V21.9191C240.354 22.2604 240.259 22.5259 240.07 22.7156C239.88 22.9052 239.614 23 239.273 23ZM103.596 55.1422C102.135 55.1422 100.827 54.8009 99.6703 54.1182C98.5135 53.4166 97.5938 52.4684 96.9112 51.2738C96.2475 50.0791 95.9156 48.7327 95.9156 47.2347C95.9156 45.7176 96.2569 44.3618 96.9396 43.1671C97.6412 41.9724 98.5894 41.0338 99.7841 40.3511C100.979 39.6495 102.325 39.2987 103.823 39.2987C105.321 39.2987 106.658 39.6495 107.834 40.3511C109.029 41.0338 109.967 41.9724 110.65 43.1671C111.351 44.3618 111.712 45.7176 111.731 47.2347L110.849 47.9173C110.849 49.2827 110.527 50.5153 109.882 51.6151C109.256 52.696 108.393 53.5588 107.293 54.2036C106.213 54.8293 104.98 55.1422 103.596 55.1422ZM103.823 53.1511C104.923 53.1511 105.9 52.8951 106.753 52.3831C107.625 51.8711 108.308 51.1695 108.801 50.2782C109.313 49.368 109.569 48.3535 109.569 47.2347C109.569 46.0969 109.313 45.0824 108.801 44.1911C108.308 43.2999 107.625 42.5982 106.753 42.0862C105.9 41.5553 104.923 41.2898 103.823 41.2898C102.742 41.2898 101.766 41.5553 100.893 42.0862C100.021 42.5982 99.3289 43.2999 98.8169 44.1911C98.3049 45.0824 98.0489 46.0969 98.0489 47.2347C98.0489 48.3535 98.3049 49.368 98.8169 50.2782C99.3289 51.1695 100.021 51.8711 100.893 52.3831C101.766 52.8951 102.742 53.1511 103.823 53.1511ZM110.621 55C110.299 55 110.034 54.9052 109.825 54.7156C109.616 54.507 109.512 54.2415 109.512 53.9191V49.0551L110.053 46.808L111.731 47.2347V53.9191C111.731 54.2415 111.626 54.507 111.418 54.7156C111.209 54.9052 110.944 55 110.621 55ZM122.334 55.1707C120.987 55.1707 119.783 54.8957 118.721 54.3458C117.659 53.7769 116.815 52.952 116.19 51.8711C115.583 50.7902 115.279 49.4723 115.279 47.9173V40.5218C115.279 40.2184 115.384 39.9624 115.592 39.7538C115.801 39.5452 116.057 39.4409 116.36 39.4409C116.683 39.4409 116.948 39.5452 117.157 39.7538C117.365 39.9624 117.47 40.2184 117.47 40.5218V47.9173C117.47 49.093 117.688 50.0601 118.124 50.8187C118.579 51.5772 119.186 52.1461 119.944 52.5253C120.722 52.9046 121.594 53.0942 122.561 53.0942C123.49 53.0942 124.325 52.9141 125.064 52.5538C125.823 52.1935 126.42 51.7004 126.856 51.0747C127.292 50.4489 127.511 49.7378 127.511 48.9413H129.075C129.018 50.136 128.686 51.2074 128.079 52.1556C127.492 53.0847 126.695 53.8243 125.69 54.3742C124.685 54.9052 123.566 55.1707 122.334 55.1707ZM128.591 55C128.269 55 128.004 54.9052 127.795 54.7156C127.605 54.507 127.511 54.232 127.511 53.8907V40.5218C127.511 40.1994 127.605 39.9434 127.795 39.7538C128.004 39.5452 128.269 39.4409 128.591 39.4409C128.914 39.4409 129.179 39.5452 129.388 39.7538C129.596 39.9434 129.701 40.1994 129.701 40.5218V53.8907C129.701 54.232 129.596 54.507 129.388 54.7156C129.179 54.9052 128.914 55 128.591 55ZM140.474 55C139.469 55 138.569 54.763 137.772 54.2889C136.995 53.8148 136.378 53.1701 135.923 52.3547C135.468 51.5203 135.241 50.5721 135.241 49.5102V35.6009C135.241 35.2785 135.335 35.013 135.525 34.8044C135.734 34.5958 135.999 34.4916 136.321 34.4916C136.644 34.4916 136.909 34.5958 137.118 34.8044C137.326 35.013 137.431 35.2785 137.431 35.6009V49.5102C137.431 50.4773 137.715 51.2738 138.284 51.8996C138.853 52.5064 139.583 52.8098 140.474 52.8098H141.242C141.546 52.8098 141.792 52.9141 141.982 53.1227C142.171 53.3313 142.266 53.5967 142.266 53.9191C142.266 54.2415 142.153 54.507 141.925 54.7156C141.697 54.9052 141.413 55 141.072 55H140.474ZM133.392 41.9156C133.107 41.9156 132.87 41.8302 132.681 41.6596C132.491 41.4699 132.396 41.2424 132.396 40.9769C132.396 40.6924 132.491 40.4649 132.681 40.2942C132.87 40.1046 133.107 40.0098 133.392 40.0098H140.645C140.929 40.0098 141.166 40.1046 141.356 40.2942C141.546 40.4649 141.641 40.6924 141.641 40.9769C141.641 41.2424 141.546 41.4699 141.356 41.6596C141.166 41.8302 140.929 41.9156 140.645 41.9156H133.392ZM146.514 48.6569C146.173 48.6569 145.898 48.5526 145.689 48.344C145.5 48.1354 145.405 47.8699 145.405 47.5476V33.8942C145.405 33.5529 145.5 33.2874 145.689 33.0978C145.898 32.8892 146.173 32.7849 146.514 32.7849C146.837 32.7849 147.093 32.8892 147.282 33.0978C147.491 33.2874 147.595 33.5529 147.595 33.8942V47.5476C147.595 47.8699 147.491 48.1354 147.282 48.344C147.093 48.5526 146.837 48.6569 146.514 48.6569ZM158.745 55C158.423 55 158.158 54.8957 157.949 54.6871C157.74 54.4785 157.636 54.2225 157.636 53.9191V46.5236C157.636 45.3479 157.409 44.3807 156.953 43.6222C156.517 42.8637 155.91 42.2948 155.133 41.9156C154.374 41.5363 153.512 41.3467 152.545 41.3467C151.615 41.3467 150.771 41.5268 150.013 41.8871C149.273 42.2474 148.686 42.7404 148.249 43.3662C147.813 43.992 147.595 44.7031 147.595 45.4996H146.031C146.069 44.3049 146.391 43.243 146.998 42.3138C147.605 41.3656 148.411 40.6261 149.416 40.0951C150.421 39.5452 151.539 39.2702 152.772 39.2702C154.118 39.2702 155.323 39.5547 156.385 40.1236C157.446 40.6735 158.281 41.4889 158.888 42.5698C159.513 43.6507 159.826 44.9686 159.826 46.5236V53.9191C159.826 54.2225 159.722 54.4785 159.513 54.6871C159.305 54.8957 159.049 55 158.745 55ZM146.514 55C146.173 55 145.898 54.9052 145.689 54.7156C145.5 54.507 145.405 54.2415 145.405 53.9191V40.5502C145.405 40.2089 145.5 39.9434 145.689 39.7538C145.898 39.5452 146.173 39.4409 146.514 39.4409C146.837 39.4409 147.093 39.5452 147.282 39.7538C147.491 39.9434 147.595 40.2089 147.595 40.5502V53.9191C147.595 54.2415 147.491 54.507 147.282 54.7156C147.093 54.9052 146.837 55 146.514 55ZM171.311 55.1422C169.794 55.1422 168.438 54.8009 167.243 54.1182C166.049 53.4356 165.11 52.4969 164.427 51.3022C163.745 50.1076 163.403 48.7517 163.403 47.2347C163.403 45.6987 163.745 44.3333 164.427 43.1387C165.11 41.944 166.049 41.0053 167.243 40.3227C168.438 39.64 169.794 39.2987 171.311 39.2987C172.828 39.2987 174.174 39.64 175.35 40.3227C176.545 41.0053 177.483 41.944 178.166 43.1387C178.849 44.3333 179.2 45.6987 179.219 47.2347C179.219 48.7517 178.868 50.1076 178.166 51.3022C177.483 52.4969 176.545 53.4356 175.35 54.1182C174.174 54.8009 172.828 55.1422 171.311 55.1422ZM171.311 53.1511C172.411 53.1511 173.397 52.8951 174.269 52.3831C175.141 51.8711 175.824 51.1695 176.317 50.2782C176.81 49.387 177.057 48.3724 177.057 47.2347C177.057 46.0969 176.81 45.0824 176.317 44.1911C175.824 43.2809 175.141 42.5698 174.269 42.0578C173.397 41.5458 172.411 41.2898 171.311 41.2898C170.211 41.2898 169.225 41.5458 168.353 42.0578C167.48 42.5698 166.788 43.2809 166.276 44.1911C165.783 45.0824 165.537 46.0969 165.537 47.2347C165.537 48.3724 165.783 49.387 166.276 50.2782C166.788 51.1695 167.48 51.8711 168.353 52.3831C169.225 52.8951 170.211 53.1511 171.311 53.1511ZM183.962 45.4142C184.019 44.2385 184.322 43.1861 184.872 42.2569C185.441 41.3277 186.171 40.5976 187.062 40.0667C187.973 39.5357 188.978 39.2702 190.077 39.2702C190.95 39.2702 191.623 39.3935 192.097 39.64C192.571 39.8865 192.751 40.2468 192.637 40.7209C192.562 41.0053 192.429 41.195 192.239 41.2898C192.069 41.3846 191.85 41.4225 191.585 41.4036C191.338 41.3846 191.054 41.3656 190.732 41.3467C189.67 41.2519 188.722 41.3656 187.887 41.688C187.072 41.9914 186.418 42.4655 185.925 43.1102C185.45 43.755 185.213 44.523 185.213 45.4142H183.962ZM184.133 55C183.791 55 183.526 54.9052 183.336 54.7156C183.146 54.5259 183.052 54.2604 183.052 53.9191V40.5218C183.052 40.1804 183.146 39.915 183.336 39.7253C183.526 39.5357 183.791 39.4409 184.133 39.4409C184.474 39.4409 184.739 39.5357 184.929 39.7253C185.119 39.915 185.213 40.1804 185.213 40.5218V53.9191C185.213 54.2604 185.119 54.5259 184.929 54.7156C184.739 54.9052 184.474 55 184.133 55ZM197.217 55C196.876 55 196.601 54.9052 196.392 54.7156C196.203 54.507 196.108 54.232 196.108 53.8907V40.5502C196.108 40.2089 196.203 39.9434 196.392 39.7538C196.601 39.5452 196.876 39.4409 197.217 39.4409C197.54 39.4409 197.796 39.5452 197.985 39.7538C198.194 39.9434 198.298 40.2089 198.298 40.5502V53.8907C198.298 54.232 198.194 54.507 197.985 54.7156C197.796 54.9052 197.54 55 197.217 55ZM197.189 36.4827C196.772 36.4827 196.411 36.331 196.108 36.0276C195.804 35.7241 195.653 35.3544 195.653 34.9182C195.653 34.4441 195.804 34.0744 196.108 33.8089C196.43 33.5244 196.8 33.3822 197.217 33.3822C197.615 33.3822 197.966 33.5244 198.27 33.8089C198.592 34.0744 198.753 34.4441 198.753 34.9182C198.753 35.3544 198.601 35.7241 198.298 36.0276C197.995 36.331 197.625 36.4827 197.189 36.4827ZM209.535 55C208.53 55 207.63 54.763 206.833 54.2889C206.056 53.8148 205.439 53.1701 204.984 52.3547C204.529 51.5203 204.302 50.5721 204.302 49.5102V35.6009C204.302 35.2785 204.396 35.013 204.586 34.8044C204.795 34.5958 205.06 34.4916 205.383 34.4916C205.705 34.4916 205.97 34.5958 206.179 34.8044C206.388 35.013 206.492 35.2785 206.492 35.6009V49.5102C206.492 50.4773 206.776 51.2738 207.345 51.8996C207.914 52.5064 208.644 52.8098 209.535 52.8098H210.303C210.607 52.8098 210.853 52.9141 211.043 53.1227C211.233 53.3313 211.327 53.5967 211.327 53.9191C211.327 54.2415 211.214 54.507 210.986 54.7156C210.759 54.9052 210.474 55 210.133 55H209.535ZM202.453 41.9156C202.168 41.9156 201.931 41.8302 201.742 41.6596C201.552 41.4699 201.457 41.2424 201.457 40.9769C201.457 40.6924 201.552 40.4649 201.742 40.2942C201.931 40.1046 202.168 40.0098 202.453 40.0098H209.706C209.991 40.0098 210.228 40.1046 210.417 40.2942C210.607 40.4649 210.702 40.6924 210.702 40.9769C210.702 41.2424 210.607 41.4699 210.417 41.6596C210.228 41.8302 209.991 41.9156 209.706 41.9156H202.453ZM217.14 61.7698C216.988 61.7698 216.817 61.7319 216.628 61.656C215.983 61.3716 215.803 60.9164 216.087 60.2907L225.275 40.0382C225.559 39.4314 226.015 39.2607 226.64 39.5262C227.285 39.7917 227.465 40.2373 227.181 40.8631L217.965 61.1156C217.775 61.5517 217.5 61.7698 217.14 61.7698ZM220.297 54.5164C220.013 54.6492 219.747 54.6776 219.501 54.6018C219.254 54.507 219.055 54.3173 218.903 54.0329L212.56 40.8916C212.428 40.6071 212.409 40.3416 212.503 40.0951C212.598 39.8486 212.788 39.659 213.072 39.5262C213.357 39.3935 213.622 39.3745 213.869 39.4693C214.115 39.5452 214.305 39.7253 214.438 40.0098L220.667 53.1511C220.819 53.4356 220.866 53.701 220.809 53.9476C220.752 54.1941 220.582 54.3837 220.297 54.5164Z" fill="black"/>
<path fill-rule="evenodd" clip-rule="evenodd" d="M32.5822 5.55554H3.33786e-05L13.7188 18.0658H46.301L32.5822 5.55554ZM13.7188 18.0658V47.7778L1.52588e-05 35.2675V5.55555L13.7188 18.0658Z" fill="#CCCCCC"/>
<path fill-rule="evenodd" clip-rule="evenodd" d="M13.7188 47.7778L46.3009 47.7778L32.5821 35.2675L-3.05176e-05 35.2675L13.7188 47.7778ZM32.5822 35.2675L32.5822 5.55554L46.301 18.0658L46.301 47.7778L32.5822 35.2675Z" fill="black"/>
</svg>
